GREETZ: UnDeaD - BadGirl2k9 - virusofsaten - foxyb - WICCYWOLF - lizzymwah1

VISIT http://www.seedboxworld.biz/ for all ur seedbox needs!

RELEASE NAME: Airline.Disaster.2010.DVDRip.X264-SDTeam
RELEASED BY: UnDeaD & BadGirl2k9
SIZE: 423.7 MB

LANGUAGE: English
IMDb: http://www.imdb.com/title/tt1610528/

PLOT: When the President learns that domestic terrorists 
have skyjacked the passenger jet her brother is flying, 
she must choose between family and the safety of the 
people in the cities below. 

COVER IMAGE: http://bayimg.com/pAOcEaAcN

SCREENS: 
http://i658.photobucket.com/albums/uu309/BadGirl2k9/screens/vlcsnap-2010-09-07-20h28m07s0.png 
http://i658.photobucket.com/albums/uu309/BadGirl2k9/screens/vlcsnap-2010-09-07-20h28m18s0.png 
http://i658.photobucket.com/albums/uu309/BadGirl2k9/screens/vlcsnap-2010-09-07-20h28m48s0.png 
http://i658.photobucket.com/albums/uu309/BadGirl2k9/screens/vlcsnap-2010-09-07-20h28m54s181.png

General
Format                           : MPEG-4
Format profile                   : Base Media
Codec ID                         : isom
File size                        : 424 MiB
Duration                         : 1h 29mn
Overall bit rate                 : 662 Kbps
Encoded date                     : UTC 2010-09-06 19:03:19
Tagged date                      : UTC 2010-09-06 19:03:19

Video
ID                               : 1
Format                           : AVC
Format/Info                      : Advanced Video Codec
Format profile                   : High@L2.2
Format settings, CABAC           : Yes
Format settings, ReFrames        : 4 frames
Codec ID                         : avc1
Codec ID/Info                    : Advanced Video Coding
Duration                         : 1h 29mn
Duration_LastFrame               : 50ms
Bit rate mode                    : Variable
Bit rate                         : 497 Kbps
Nominal bit rate                 : 500 Kbps
Maximum bit rate                 : 2 526 Kbps
Width                            : 640 pixels
Height                           : 352 pixels
Display aspect ratio             : 16:9
Frame rate mode                  : Constant
Frame rate                       : 20.000 fps
Resolution                       : 8 bits
Colorimetry                      : 4:2:0
Scan type                        : Progressive
Bits/(Pixel*Frame)               : 0.110
Stream size                      : 318 MiB (75%)
Title                            : Imported with GPAC 0.4.6-DEV (internal rev. 5)
Writing library                  : x264 core 102 r1666 d058f37

Audio
ID                               : 2
Format                           : MPEG Audio
Format version                   : Version 1
Format profile                   : Layer 3
Format_Settings_Mode             : Joint stereo
Codec ID                         : 6B
Duration                         : 1h 29mn
Bit rate mode                    : Variable
Bit rate                         : 162 Kbps
Nominal bit rate                 : 160 Kbps
Maximum bit rate                 : 175 Kbps
Channel(s)                       : 2 channels
Sampling rate                    : 48.0 KHz
Stream size                      : 103 MiB (24%)
Title                            : Imported with GPAC 0.4.6-DEV (internal rev. 5)
Writing library                  : LAME3.90.

GROUP NOTE: Big thanks to seedboxworld.biz for the seedbox!

